<?xml version="1.0" encoding="utf-8"?>
<!-- Generator: Adobe Illustrator 24.3.0, SVG Export Plug-In . SVG Version: 6.00 Build 0)  -->
<svg version="1.1" id="Layer_1" xmlns="http://www.w3.org/2000/svg" xmlns:xlink="http://www.w3.org/1999/xlink" x="0px" y="0px"
	 viewBox="0 0 40 40" style="enable-background:new 0 0 40 40;" xml:space="preserve">
<style type="text/css">
	.st0{fill:#FFFFFF;}
</style>
<path class="st0" d="M32.1,25.5c-1.8,0-3.4,0.7-4.6,1.9l-13.3-6.2c0-0.2,0-0.4,0-0.7s0-0.5,0-0.7l13.3-6.2c1.2,1.2,2.8,1.9,4.6,1.9
	c3.5,0,6.4-2.9,6.4-6.4c0-3.5-2.9-6.4-6.4-6.4c-3.5,0-6.4,2.9-6.4,6.4c0,0.2,0,0.4,0,0.7l-13.3,6.2c-1.2-1.2-2.8-1.9-4.6-1.9
	c-3.5,0-6.4,2.9-6.4,6.4c0,3.5,2.9,6.4,6.4,6.4c1.8,0,3.4-0.7,4.6-1.9l13.3,6.2c0,0.2,0,0.4,0,0.7c0,3.5,2.9,6.4,6.4,6.4
	c3.5,0,6.4-2.9,6.4-6.4S35.6,25.5,32.1,25.5z"/>
</svg>
