<?xml version="1.0" encoding="utf-8"?>
<!-- Generator: Adobe Illustrator 24.3.0, SVG Export Plug-In . SVG Version: 6.00 Build 0)  -->
<svg version="1.1" xmlns="http://www.w3.org/2000/svg" xmlns:xlink="http://www.w3.org/1999/xlink" x="0px" y="0px"
	 viewBox="0 0 40 40" style="enable-background:new 0 0 40 40;" xml:space="preserve">
<style type="text/css">
	.st0{fill:#FFFFFF;}
</style>
<g id="Layer_2">
</g>
<g id="Layer_1">
	<g>
		<path class="st0" d="M35.4,13c-0.2-0.3-0.5-0.4-0.9-0.4l-4.4-0.3L13,11.4l-3.6-0.2L8.7,6.7c-0.1-0.6-0.6-1-1.2-1H1.6
			C1,5.7,0.4,6.2,0.4,6.9S1,8.1,1.6,8.1h4.9L9.7,29c0.1,1,0.6,1.8,1.2,2.4C10.2,32.1,9.8,33,9.8,34c0,2,1.7,3.7,3.7,3.7
			s3.7-1.7,3.7-3.7c0-0.4-0.1-0.9-0.3-1.3h8.6c-0.1,0.4-0.3,0.9-0.3,1.3c0,2,1.7,3.7,3.7,3.7s3.7-1.7,3.7-3.7c0-2-1.5-3.6-3.4-3.7
			c-0.1,0-0.1,0-0.3,0H14.1c-1,0-1.9-0.7-2-1.7l-0.3-1.9h15.4c3.6,0,6.6-2.6,7.2-6.1l1.2-6.7C35.7,13.6,35.6,13.2,35.4,13z M29,32.7
			c0.7,0,1.3,0.6,1.3,1.3s-0.6,1.3-1.3,1.3c-0.7,0-1.3-0.6-1.3-1.3S28.3,32.7,29,32.7z M13.5,32.7c0.7,0,1.3,0.6,1.3,1.3
			s-0.6,1.3-1.3,1.3s-1.3-0.6-1.3-1.3S12.8,32.7,13.5,32.7z"/>
	</g>
</g>
</svg>
