<?xml version="1.0" encoding="utf-8"?>
<!-- Generator: Adobe Illustrator 24.3.0, SVG Export Plug-In . SVG Version: 6.00 Build 0)  -->
<svg version="1.1" id="Layer_1" xmlns="http://www.w3.org/2000/svg" xmlns:xlink="http://www.w3.org/1999/xlink" x="0px" y="0px"
	 viewBox="0 0 128.9 32.1" style="enable-background:new 0 0 128.9 32.1;" xml:space="preserve">
<style type="text/css">
	.st0{stroke:#000000;stroke-width:0.1;stroke-miterlimit:10;}
</style>
<g>
	<path d="M20.9,26.1c0-0.3-0.1-0.7-0.4-1.4L19.7,23c-0.5-1-0.9-1.4-1.6-1.6V21h3.7v0.5c-0.6,0.1-1.2,0.5-1.2,1.1
		c0,0.4,0.1,0.7,0.4,1.4l1.1,2.4h0.1l1-2.4c0.3-0.8,0.4-1.1,0.4-1.5c0-0.6-0.6-1-1.2-1V21h3.8v0.5c-0.8,0.2-1.2,0.6-1.6,1.6
		l-0.7,1.8c-0.3,0.6-0.4,1.1-0.4,1.4c0,0.4,0.3,0.7,0.8,0.8v0.5h-4.2V27C20.6,26.8,20.9,26.5,20.9,26.1z"/>
	<path d="M27.6,24.9v-0.7c0-1.1-0.4-1.6-1.2-2.1v-0.5l1.8-0.9h0.5c-0.2,0.8-0.2,1.8-0.2,3.4v0.8c0,1.2,0.3,1.6,1.2,2.1v0.5h-3.3V27
		C27.2,26.5,27.6,26,27.6,24.9z M27.9,17.6c0.6,0,1,0.4,1,1c0,0.6-0.4,1-1,1c-0.6,0-1-0.5-1-1C26.9,18,27.3,17.6,27.9,17.6z"/>
	<path d="M31.4,26.9l-0.2,0.5h-0.5L30.2,25l0.4-0.2c0.8,0.9,1.8,1.5,3.2,1.5c0.8,0,1.3-0.3,1.3-0.7c0-0.7-0.9-0.8-1.9-1
		c-1.3-0.2-2.7-0.5-2.7-1.9c0-1.1,1-1.9,2.5-1.9c0.7,0,1.3,0.2,1.7,0.5l0.2-0.5h0.5l0.8,2.3l-0.4,0.2c-0.7-0.8-1.6-1.2-2.6-1.2
		c-1,0-1.5,0.4-1.5,0.8c0,0.6,0.8,0.7,1.8,0.9c1.3,0.2,2.8,0.5,2.8,1.9c0,1.1-1.1,2-2.6,2C32.8,27.6,32,27.3,31.4,26.9z"/>
	<path d="M37.9,25.4v-1.1c0-1.2-0.3-1.8-1-2.2v-0.5l1.5-0.9h0.5c-0.2,1.1-0.2,2-0.2,2.9v0.9c0,1.1,0.8,1.6,1.7,1.6
		c0.7,0,1.6-0.5,2.2-1.1v-1c0-1.2-0.4-1.6-1.1-2v-0.5l1.6-0.9h0.5c-0.2,1.1-0.2,2-0.2,2.9v0.5c0,1.3,0.3,2,1.1,2.4V27l-1.1,0.6H43
		c-0.2-0.4-0.4-0.8-0.4-1.5c-0.6,0.8-1.5,1.5-2.6,1.5C38.7,27.6,37.9,26.7,37.9,25.4z"/>
	<path d="M50.1,26.4c-0.6,0.8-1.3,1.3-2.5,1.3c-1.5,0-2.5-0.9-2.5-2c0-1.3,1.2-2.2,2.8-2.2c1,0,1.7,0.3,2.2,0.8v-0.7
		c0-0.9-0.8-1.4-1.8-1.4c-0.8,0-1.5,0.3-2,1.1H46l-0.9-0.8c0.7-0.9,1.8-1.5,3.1-1.5c1.7,0,2.7,0.9,2.7,2.6v0.9c0,1.3,0.3,2,1.1,2.4
		V27l-1.1,0.6h-0.5C50.2,27.3,50.1,26.8,50.1,26.4z M47.7,26.3c1,0,2-0.4,2.3-0.9v-0.5c-0.6-0.4-1.2-0.6-2.2-0.6c-1,0-2,0.4-2,1
		S46.7,26.3,47.7,26.3z"/>
	<path d="M53.7,24.9v-4.1c0-1.4-0.4-2-1.1-2.4v-0.5l1.8-0.9h0.5c-0.2,0.8-0.4,1.9-0.4,3.4v4.5c0,1.2,0.3,1.6,1.2,2.1v0.5h-3.3V27
		C53.3,26.5,53.7,26,53.7,24.9z"/>
	<path d="M59.1,24.2c0-2,1.6-3.4,3.4-3.4c1.1,0,2,0.5,2.5,1.2v-1c0-1.4-0.5-2.1-1.2-2.6v-0.5l1.8-0.9h0.4c-0.2,0.8-0.2,2-0.2,3.5
		v3.6c0,1.3,0.3,2,1.1,2.4V27l-1,0.6h-0.4c-0.2-0.3-0.3-0.7-0.4-1.3c-0.4,0.7-1.4,1.3-2.5,1.3C60.6,27.6,59.1,26.3,59.1,24.2z
		 M62.5,26.2c1,0,2-0.5,2.5-1.2v-1.6c-0.6-0.7-1.5-1.1-2.6-1.1c-1.3,0-2.5,0.7-2.5,2C60,25.5,61.1,26.2,62.5,26.2z"/>
	<path d="M67.5,24.3c0-2.1,1.6-3.6,3.5-3.6c1.7,0,2.8,0.9,3.3,2.6l-0.2,0.3l-5.5,1.5c0.5,0.6,1.3,1,2.4,1c1.1,0,2-0.3,2.7-0.9
		l0.3,0.2c-0.5,1.3-1.5,2.2-3.1,2.2C68.9,27.6,67.5,26.1,67.5,24.3z M68.4,24.3l4.9-1.3c-0.3-0.5-1-0.9-2.2-0.9
		c-1.3,0-2.7,0.8-2.7,2L68.4,24.3z"/>
	<path d="M76.2,26.9L76,27.4h-0.5L75,25l0.4-0.2c0.8,0.9,1.8,1.5,3.2,1.5c0.8,0,1.3-0.3,1.3-0.7c0-0.7-0.9-0.8-1.9-1
		c-1.3-0.2-2.7-0.5-2.7-1.9c0-1.1,1-1.9,2.5-1.9c0.7,0,1.3,0.2,1.7,0.5l0.2-0.5h0.5l0.8,2.3l-0.4,0.2c-0.7-0.8-1.6-1.2-2.6-1.2
		c-1,0-1.5,0.4-1.5,0.8c0,0.6,0.8,0.7,1.8,0.9c1.3,0.2,2.8,0.5,2.8,1.9c0,1.1-1.1,2-2.6,2C77.6,27.6,76.8,27.3,76.2,26.9z"/>
	<path d="M83,24.9v-0.7c0-1.1-0.4-1.6-1.2-2.1v-0.5l1.8-0.9H84c-0.2,0.8-0.2,1.8-0.2,3.4v0.8c0,1.2,0.3,1.6,1.2,2.1v0.5h-3.3V27
		C82.6,26.5,83,26,83,24.9z M83.3,17.6c0.6,0,1,0.4,1,1c0,0.6-0.4,1-1,1c-0.6,0-1-0.5-1-1C82.3,18,82.7,17.6,83.3,17.6z"/>
	<path d="M86,28.1l0.4-0.3c0.6,0.7,1.5,1.1,2.7,1.1c1.6,0,2.5-1,2.5-2.2v-0.6c-0.6,0.7-1.5,1.3-2.6,1.3c-1.9,0-3.3-1.3-3.3-3.1
		c0-2.1,1.4-3.5,3.4-3.5c0.9,0,1.9,0.5,2.5,1.3c0.1-0.5,0.3-0.9,0.5-1.3h0.3v6.1c0,2.1-1.1,3.6-3.2,3.6C87.6,30.4,86.4,29.5,86,28.1
		z M89.2,26.2c0.9,0,1.8-0.4,2.3-1v-1.9c-0.5-0.7-1.3-1-2.5-1c-1.4,0-2.6,0.8-2.6,2C86.5,25.3,87.5,26.2,89.2,26.2z"/>
	<path d="M94.8,24.9v-0.7c0-1.2-0.5-1.6-1.2-2.1v-0.5l1.8-0.9h0.5c0,0.2-0.1,0.7-0.2,1.4c0.8-0.9,1.8-1.4,2.8-1.4c1.3,0,2,0.9,2,2.3
		v1.6c0,1.4,0.5,2,1.2,2.4v0.5h-3.4V27c0.9-0.5,1.4-0.9,1.4-2.1v-1.1c0-1-0.5-1.6-1.5-1.6c-0.8,0-1.8,0.4-2.5,0.9c0,0.2,0,0.3,0,0.5
		v1.2c0,1.2,0.5,1.7,1.4,2.1v0.5h-3.4V27C94.3,26.6,94.8,26,94.8,24.9z"/>
	<path d="M102.3,24.3c0-2.1,1.6-3.6,3.5-3.6c1.7,0,2.8,0.9,3.3,2.6l-0.2,0.3l-5.5,1.5c0.5,0.6,1.3,1,2.4,1c1.1,0,2-0.3,2.7-0.9
		l0.3,0.2c-0.5,1.3-1.5,2.2-3.1,2.2C103.7,27.6,102.3,26.1,102.3,24.3z M103.1,24.3l4.9-1.3c-0.3-0.5-1-0.9-2.2-0.9
		c-1.3,0-2.7,0.8-2.7,2L103.1,24.3z"/>
	<path d="M111,24.9v-0.7c0-1.2-0.4-1.6-1.1-2.1v-0.5l1.7-0.9h0.5c-0.1,0.3-0.2,0.8-0.3,1.4c0.7-1,1.4-1.4,2.2-1.4
		c0.7,0,1.3,0.3,1.6,0.9l-0.9,1.4h-0.5c-0.2-0.6-0.5-0.8-1-0.8c-0.5,0-1.2,0.3-1.6,1v0.2v1.4c0,1.1,0.6,1.6,1.5,2.1v0.5h-3.6V27
		C110.6,26.6,111,26,111,24.9z"/>
</g>
<g>
	<path class="st0" d="M10.6,12.1l0-5.8l-2.8,4.8h-1L3.9,6.4v5.7H1.8V2.5h1.8l3.6,6l3.6-6h1.8l0,9.7H10.6z"/>
	<path class="st0" d="M22.2,10h-4.5l-0.9,2.1h-2.3l4.3-9.7H21l4.3,9.7H23L22.2,10z M21.5,8.3l-1.5-3.7l-1.5,3.7H21.5z"/>
	<path class="st0" d="M33.3,12.1l-1.9-2.7h-0.1h-1.9v2.7h-2.2V2.5h4.2c2.6,0,4.2,1.3,4.2,3.5c0,1.4-0.7,2.5-2,3l2.2,3.1H33.3z
		 M31.3,4.3h-1.8v3.4h1.8c1.4,0,2.1-0.6,2.1-1.7C33.3,4.9,32.6,4.3,31.3,4.3z"/>
	<path class="st0" d="M42.7,8.7v3.4h-2.2V8.7l-3.7-6.2h2.4l2.6,4.3l2.6-4.3h2.2L42.7,8.7z"/>
	<path class="st0" d="M61.3,6c0,2.2-1.6,3.5-4.2,3.5h-1.9v2.7h-2.2V2.5h4.2C59.7,2.5,61.3,3.8,61.3,6z M59,6c0-1.1-0.7-1.7-2.1-1.7
		h-1.8v3.4H57C58.3,7.6,59,7,59,6z"/>
	<path class="st0" d="M69.6,10h-4.5l-0.9,2.1h-2.3l4.3-9.7h2.2l4.3,9.7h-2.3L69.6,10z M68.9,8.3l-1.5-3.7l-1.5,3.7H68.9z"/>
	<path class="st0" d="M73.8,7.3c0-2.9,2.2-5,5.2-5c1.7,0,3.1,0.6,4,1.7l-1.4,1.3c-0.6-0.7-1.5-1.1-2.4-1.1c-1.8,0-3.1,1.3-3.1,3.1
		c0,1.8,1.3,3.1,3.1,3.1c1,0,1.8-0.4,2.4-1.1l1.4,1.3c-0.9,1.1-2.3,1.7-4,1.7C76.1,12.3,73.8,10.2,73.8,7.3z"/>
	<path class="st0" d="M94.2,2.5v9.7H92v-4h-4.4v4h-2.2V2.5h2.2v3.8H92V2.5H94.2z"/>
	<path class="st0" d="M104.8,10.3v1.8h-7.5V2.5h7.3v1.8h-5.1v2.1h4.5v1.7h-4.5v2.2H104.8z"/>
	<path class="st0" d="M106.8,7.3c0-2.9,2.2-5,5.2-5c1.7,0,3.1,0.6,4,1.7l-1.4,1.3c-0.6-0.7-1.5-1.1-2.4-1.1c-1.8,0-3.1,1.3-3.1,3.1
		c0,1.8,1.3,3.1,3.1,3.1c1,0,1.8-0.4,2.4-1.1l1.4,1.3c-0.9,1.1-2.3,1.7-4,1.7C109,12.3,106.8,10.2,106.8,7.3z"/>
	<path class="st0" d="M117.5,7.3c0-2.9,2.2-5,5.3-5c3,0,5.3,2.1,5.3,5c0,2.9-2.2,5-5.3,5C119.8,12.3,117.5,10.2,117.5,7.3z
		 M125.8,7.3c0-1.8-1.3-3.1-3-3.1c-1.7,0-3,1.3-3,3.1c0,1.8,1.3,3.1,3,3.1C124.5,10.4,125.8,9.1,125.8,7.3z"/>
</g>
</svg>
